<?xml version="1.0" encoding="UTF-8"?>
<svg id="Layer_2" data-name="Layer 2" xmlns="http://www.w3.org/2000/svg" viewBox="0 0 329.05 80.9">
  <defs>
    <style>
      .cls-1 {
        fill: #325619;
      }

      .cls-1, .cls-2 {
        stroke-width: 0px;
      }

      .cls-2 {
        fill: #73ab01;
      }
    </style>
  </defs>
  <g id="Layer_1-2" data-name="Layer 1">
    <g>
      <path class="cls-1" d="m160.82,72.69c-5.68,0-10.17-1.42-13.5-4.26-3.32-2.84-4.99-7.14-4.99-12.91,0-5.21,1.4-9.36,4.19-12.43,2.79-3.07,6.96-4.6,12.5-4.6,5.08,0,8.97,1.33,11.67,3.98,2.7,2.65,4.05,6.13,4.05,10.42h0c0,3.29-2.67,5.95-5.95,5.95h-17.79c.51,2.63,1.72,4.43,3.63,5.4,1.92.97,4.63,1.46,8.13,1.46,1.75,0,3.54-.16,5.37-.49,1.82-.32,3.38-.74,4.67-1.25v6.65c-1.52.69-3.3,1.21-5.33,1.56-2.03.35-4.25.52-6.65.52Zm-9.83-19.59h15.58v-1.8c0-1.89-.55-3.38-1.66-4.46-1.11-1.08-2.98-1.63-5.61-1.63-3.09,0-5.25.62-6.47,1.87-1.22,1.24-1.83,3.25-1.83,6.02Z"/>
      <path class="cls-1" d="m198.62,72.69c-2.31,0-4.32-.31-6.02-.93-1.71-.62-3.28-1.56-4.71-2.8h0c-.28,1.75-1.79,3.05-3.57,3.05h-5.01V25.34h9.35v15.65c1.34-.83,2.84-1.46,4.5-1.87,1.66-.42,3.39-.62,5.19-.62,4.71,0,8.43,1.33,11.18,3.98,2.74,2.65,4.12,6.93,4.12,12.84s-1.35,10.28-4.05,13.12c-2.7,2.84-6.36,4.26-10.97,4.26Zm-2.63-6.85c3,0,5.11-.88,6.33-2.63,1.22-1.75,1.83-4.38,1.83-7.89s-.66-6.22-1.97-7.72c-1.31-1.5-3.4-2.25-6.26-2.25-1.43,0-2.78.21-4.05.62-.01,0-.03,0-.04.01-1.94.64-3.18,2.56-3.18,4.61v12.27c.92.97,2.02,1.71,3.29,2.21,1.27.51,2.62.76,4.05.76Z"/>
      <path class="cls-2" d="m230.47,72.69c-2.08,0-4.01-.38-5.78-1.14-1.78-.76-3.21-1.89-4.29-3.39-1.08-1.5-1.63-3.38-1.63-5.64,0-3.23,1.14-5.82,3.43-7.76,2.28-1.94,5.67-2.91,10.14-2.91h9.69v-.9c0-2.03-.57-3.46-1.7-4.29-1.13-.83-3.4-1.25-6.82-1.25-3.74,0-7.34.58-10.8,1.73v-6.58c1.52-.6,3.38-1.1,5.57-1.49,2.19-.39,4.58-.59,7.16-.59,4.94,0,8.76,1.01,11.46,3.01,2.7,2.01,4.05,5.23,4.05,9.66v20.84h-5.08c-1.74,0-3.22-1.26-3.5-2.98h0c-1.29,1.15-2.89,2.05-4.78,2.7-1.89.65-4.27.97-7.13.97Zm2.56-6.16c2.08,0,3.88-.35,5.4-1.04.02,0,.03-.01.05-.02,2.21-1.02,3.55-3.32,3.55-5.76v-2.05h-9.48c-3.65,0-5.47,1.5-5.47,4.5s1.98,4.36,5.95,4.36Z"/>
      <path class="cls-2" d="m258.5,72v-32.82h5.52c1.78,0,3.28,1.34,3.48,3.12h0c1.34-1.01,3.03-1.9,5.09-2.66,2.05-.76,4.21-1.14,6.47-1.14,4.34,0,7.5,1.02,9.48,3.05,1.98,2.03,2.98,5.17,2.98,9.42v21.04h-9.35v-20.56c0-2.21-.45-3.78-1.35-4.71-.9-.92-2.57-1.39-5.02-1.39-1.43,0-2.87.32-4.33.97-1.45.65-2.66,1.46-3.63,2.42v23.26h-9.35Z"/>
      <path class="cls-2" d="m315.13,72.69c-5.68,0-10.17-1.42-13.5-4.26-3.32-2.84-4.99-7.14-4.99-12.91,0-5.21,1.4-9.36,4.19-12.43,2.79-3.07,6.96-4.6,12.5-4.6,5.08,0,8.97,1.33,11.67,3.98,2.7,2.65,4.05,6.13,4.05,10.42h0c0,3.29-2.67,5.95-5.95,5.95h-17.79c.51,2.63,1.72,4.43,3.63,5.4,1.92.97,4.63,1.46,8.13,1.46,1.75,0,3.54-.16,5.37-.49,1.82-.32,3.38-.74,4.67-1.25v6.65c-1.52.69-3.3,1.21-5.33,1.56-2.03.35-4.25.52-6.65.52Zm-9.83-19.59h15.58v-1.8c0-1.89-.55-3.38-1.66-4.46-1.11-1.08-2.98-1.63-5.61-1.63-3.09,0-5.25.62-6.47,1.87-1.22,1.24-1.83,3.25-1.83,6.02Z"/>
      <path class="cls-1" d="m99.76,72l-12.34-36.78,9.8,2.84,7.47,23,4.81-13.67c.93-2.64,1.4-6.11,1.4-8.9h7.13l7.64,20.94,7.27-20.94h8.39l-11.34,33.51h-8.58l-6.49-19.64-6.44,19.64h-8.72Z"/>
    </g>
    <g>
      <polygon class="cls-2" points="25.55 52.91 14.1 14.04 52.71 25.22 60.31 17.46 0 0 17.88 60.73 25.55 52.91 25.55 52.91"/>
      <polygon class="cls-1" points="60.31 17.46 52.71 25.22 25.55 52.91 17.88 60.73 81.74 80.9 60.31 17.46"/>
    </g>
  </g>
</svg>